<svg width="614" height="137" viewBox="0 0 614 137" fill="none" xmlns="http://www.w3.org/2000/svg" class="h-6 w-auto">
  <path
    d="M45.7935 132.102L0 4.89788H40.1602L63.057 81.5839L85.0452 4.89788H115.029L137.017 81.5839L159.914 4.89788H200.074L154.281 132.102H121.208L100.128 62.8667L78.8667 132.102H45.7935Z"
    fill="currentColor"></path>
  <path
    d="M315.989 116.474C303.269 129.558 286.247 136.1 264.926 136.1C243.604 136.1 226.583 129.558 213.862 116.474C201.142 103.39 194.782 87.3989 194.782 68.5C194.782 49.6011 201.142 33.6097 213.862 20.5258C226.583 7.44196 243.604 0.900024 264.926 0.900024C286.247 0.900024 303.269 7.44196 315.989 20.5258C328.709 33.6097 335.07 49.6011 335.07 68.5C335.07 87.3989 328.709 103.39 315.989 116.474ZM264.926 102.3C274.739 102.3 282.31 99.0896 287.641 92.6688C293.092 86.1269 295.758 78.0706 295.636 68.5C295.758 58.9294 293.092 50.9337 287.641 44.5129C282.31 37.971 274.739 34.7 264.926 34.7C255.234 34.7 247.662 37.971 242.211 44.5129C236.88 50.9337 234.215 58.9294 234.215 68.5C234.215 78.0706 236.88 86.1269 242.211 92.6688C247.662 99.0896 255.234 102.3 264.926 102.3Z"
    fill="currentColor"></path>
  <path
    d="M344.264 132.102V4.89789H392.238L419.314 87.9441L446.209 4.89789H493.093V132.102H456.749V51.4183L433.489 132.102H405.504L380.608 51.0549V132.102H344.264Z"
    fill="currentColor"></path>
  <path
    d="M566.059 4.89789C579.627 4.89789 590.894 9.38032 599.859 18.3452C608.824 27.3101 613.306 38.6373 613.306 52.3269C613.306 66.0165 608.824 77.3438 599.859 86.3086C590.894 95.1524 579.627 99.5742 566.059 99.5742H542.435V132.102H504.637V4.89789H566.059ZM558.063 70.3172C562.909 70.3172 566.907 68.6212 570.057 65.2291C573.328 61.8369 574.963 57.5362 574.963 52.3269C574.963 47.1176 573.328 42.8169 570.057 39.4248C566.907 36.0327 562.97 34.3366 558.245 34.3366H542.435V70.3172H558.063Z"
    fill="currentColor"></path>
</svg>